# xmcd
#
# Track frame offsets: 
#        150
#        10742
#        21192
#        30610
#        39342
#        49687
#        62762
#        75055
#        89850
#        101502
#        114692
#        125512
#
# Disc length: 1813 seconds
#
# Revision: 1
# Processed by: cddbd v1.5.2PL0 Copyright (c) Steve Scherf et al.
# Submitted via: ExactAudioCopy v0.90b4
#
DISCID=8e07130c
DTITLE=Dolly Parton - The World of Dolly Parton, Vol. 2
DYEAR=1967
DGENRE=Country
TTITLE0=Why, Why, Why
TTITLE1=I Wound Easy
TTITLE2=I Don't Want You Around Me Anymore
TTITLE3=Hillbilly Willy
TTITLE4=This Boy Has Been Hurt
TTITLE5=Daddy Won't Be Home Anymore
TTITLE6=As Long As I Love
TTITLE7=A Habit I Can't Break
TTITLE8=I'm Not Worth The Tears
TTITLE9=I Don't Trust Me Around You
TTITLE10=I Couldn't Wait Forever
TTITLE11=Too Lonely Too Long
EXTD=The World of Dolly Parton, Vol. 2\n1988 CBS Records, Inc.\n\n2LP 
EXTD=Originally Released 1967\nCD Edition Released 1988 and July 1, 19
EXTD=91\n\nAMG EXPERT REVIEW: The World of Dolly Parton, Vol. 2 contai
EXTD=ns the remaining 12 songs from her days at Monument Records, incl
EXTD=uding "Daddy Won't Be Home Anymore," "This Boy Has Been Hurt," "I
EXTD='m Not Worth the Tears," and "I'm Not Worth the Tears." Though th
EXTD=ey didn't storm the charts like her RCA material, Parton's Monume
EXTD=nt recordings are among her rootsiest and hardest country recordi
EXTD=ngs and should be heard by any of her fans.  -- Thom Owens\n\nAMA
EXTD=ZON.COM CUSTOMER REVIEW\nDolly the hillbilly singer part 2, Octob
EXTD=er 16, 2004\nReviewer: P D Harris "Pete the music and horse racin
EXTD=g fan" (Leicester England]\nDolly officially began her recording 
EXTD=career on Monument - she made recordings before that but they are
EXTD=mainly of curiosity value. Dolly was still maturing as a singer 
EXTD=during her time on Monument but I love these recordings as they h
EXTD=ave little in common with her later music (even her early RCA mus
EXTD=ic). Dolly's natural voice contains a lot of vibrato that she gra
EXTD=dually eliminated over many years. On these recordings, you hear 
EXTD=Dolly sounding exactly as she was meant to sound - pure hillbilly
EXTD=\n\nThis album is a straight re-issue of the original album "As
EXTD=long as I love" - which was not released until Dolly was three y
EXTD=ears into her RCA contract - so yielded no hits. Nevertheless, it
EXTD=includes Why why why (covered by Tracy Nelson on her album, Coun
EXTD=try) and I wound easy (covered by Tammy Wynette) while the title 
EXTD=track was covered by Dottie West. Some of these covers actually a
EXTD=ppeared before Dolly's recordings were publicly available. There 
EXTD=are many other great songs here including I don't want you around
EXTD=me anymore, This boy has been hurt and Daddy won't be home anymo
EXTD=re. \n\nIf you enjoy hillbilly music, you'll love this.\n\nAMAZON
EXTD=COM CUSTOMER REVIEW\nThis CD contains the early album "As long a
EXTD=s I Love", December 26, 2003\nReviewer: W. Schofield (Philadelphi
EXTD=a, PA USA]\n"As long as I Love" was recorded for the Monument lab
EXTD=el very early in Dolly's career. This is the only available CD ve
EXTD=rsion of it that I have found. It is a great album. Check out vol
EXTD=ume 1 of this series too, as that contains the 1967 Monument albu
EXTD=m "Hello, I'm Dolly."\n\n
EXTT0=
EXTT1=
EXTT2=
EXTT3=
EXTT4=
EXTT5=
EXTT6=
EXTT7=
EXTT8=
EXTT9=
EXTT10=
EXTT11=
PLAYORDER=
